<svg xmlns="http://www.w3.org/2000/svg" viewBox="-9321.75 -23269.5 28.125 23.311">
  <defs>
    <style>
      .cls-1 {
        fill: #03cccc;
      }
    </style>
  </defs>
  <path id="Path_1177" data-name="Path 1177" class="cls-1" d="M20.947.437,14.063,7.643,7.178.437A1.4,1.4,0,0,0,5.429.213L.672,3.138A1.379,1.379,0,0,0,0,4.327V18.306a1.4,1.4,0,0,0,.742,1.231l7.164,3.778V12.779l6.157,6.437,6.157-6.437V23.315l7.164-3.778a1.377,1.377,0,0,0,.742-1.231V4.327a1.379,1.379,0,0,0-.672-1.189L22.7.213A1.4,1.4,0,0,0,20.947.437Z" transform="translate(-9321.75 -23269.504)"/>
</svg>
