<?xml version="1.0" encoding="utf-8"?>
<!-- Generator: Adobe Illustrator 21.0.2, SVG Export Plug-In . SVG Version: 6.00 Build 0)  -->
<svg version="1.1" id="Layer_1" xmlns="http://www.w3.org/2000/svg" xmlns:xlink="http://www.w3.org/1999/xlink" x="0px" y="0px"
	 viewBox="0 0 20 20" style="enable-background:new 0 0 20 20;" xml:space="preserve">
<style type="text/css">
	.st0{fill:#3399CC;}
</style>
<title>menu_skill</title>
<path class="st0" d="M10.6,1L11,2.8c0.1,0.7,0.6,1.2,1.2,1.5l0.3,0.1c0.2,0.1,0.5,0.2,0.8,0.2c0.4,0,0.8-0.1,1.1-0.3l1.5-1l0.9,0.9
	l-1,1.5c-0.4,0.6-0.4,1.3-0.2,1.9l0.1,0.3c0.3,0.6,0.8,1.1,1.5,1.2L19,9.4v1.2L17.2,11c-0.7,0.1-1.2,0.6-1.5,1.2l-0.1,0.3
	c-0.3,0.6-0.2,1.3,0.2,1.9l1,1.5l-0.9,0.9l-1.5-1c-0.3-0.2-0.7-0.3-1.1-0.3c-0.3,0-0.5,0.1-0.8,0.2l-0.3,0.1
	c-0.6,0.3-1.1,0.8-1.2,1.5l-0.3,1.8H9.4L9,17.2c-0.1-0.7-0.6-1.2-1.2-1.5l-0.3-0.1c-0.2-0.1-0.5-0.2-0.8-0.2c-0.4,0-0.8,0.1-1.1,0.3
	l-1.5,1L3.2,16l1-1.5c0.4-0.6,0.4-1.3,0.2-1.9l-0.1-0.3C4,11.6,3.4,11.1,2.8,11L1,10.6V9.4L2.8,9C3.4,8.9,4,8.5,4.2,7.8l0.1-0.3
	c0.3-0.6,0.2-1.3-0.2-1.9l-1-1.5l0.9-0.9l1.5,1c0.3,0.2,0.7,0.3,1.1,0.3c0.3,0,0.5-0.1,0.8-0.2l0.3-0.1C8.5,4,8.9,3.5,9,2.8L9.4,1
	L10.6,1 M10.6,0H9.4c-0.5,0-0.9,0.3-1,0.8L8,2.6C7.9,2.9,7.7,3.2,7.4,3.3L7,3.5C6.9,3.5,6.8,3.5,6.6,3.5c-0.2,0-0.4-0.1-0.5-0.2
	l-1.5-1C4.2,2.1,3.6,2.2,3.3,2.5L2.4,3.4C2.1,3.7,2,4.2,2.3,4.6l1,1.5c0.2,0.3,0.2,0.6,0.1,0.9C3.3,7.2,3.3,7.4,3.2,7.5
	C3.1,7.8,2.8,8,2.5,8.1L0.7,8.4C0.2,8.5-0.1,9-0.1,9.4v1.3c0,0.5,0.3,0.9,0.8,1L2.5,12c0.3,0.1,0.6,0.3,0.7,0.6
	c0.1,0.1,0.1,0.3,0.2,0.4c0.1,0.3,0.1,0.6-0.1,0.9l-1,1.5c-0.3,0.4-0.2,0.9,0.1,1.2l0.9,0.9C3.6,18,4.2,18,4.5,17.7l1.5-1
	c0.2-0.1,0.4-0.2,0.5-0.2c0.1,0,0.3,0,0.4,0.1l0.4,0.2c0.3,0.1,0.5,0.4,0.6,0.7l0.4,1.8c0.1,0.5,0.5,0.8,1,0.8h1.3
	c0.5,0,0.9-0.3,1-0.8l0.4-1.8c0.1-0.3,0.3-0.6,0.6-0.7l0.4-0.2c0.1-0.1,0.2-0.1,0.4-0.1c0.2,0,0.4,0.1,0.5,0.2l1.5,1
	c0.4,0.3,0.9,0.2,1.2-0.1l0.9-0.9c0.3-0.3,0.4-0.8,0.1-1.2l-1-1.5c-0.2-0.3-0.2-0.6-0.1-0.9c0.1-0.1,0.1-0.3,0.2-0.4
	c0.1-0.3,0.4-0.5,0.7-0.6l1.8-0.4c0.5-0.1,0.8-0.5,0.8-1V9.4c0-0.5-0.3-0.9-0.8-1l-1.8-0.4c-0.3-0.1-0.6-0.3-0.7-0.6
	c-0.1-0.1-0.1-0.3-0.2-0.4c-0.1-0.3-0.1-0.6,0.1-0.9l1-1.5c0.3-0.4,0.2-0.9-0.1-1.2l-0.9-0.9c-0.3-0.3-0.8-0.4-1.2-0.1l-1.5,1
	c-0.2,0.1-0.4,0.2-0.5,0.2c-0.1,0-0.3,0-0.4-0.1l-0.4-0.2C12.3,3.2,12,2.9,12,2.6l-0.4-1.8C11.5,0.3,11.1,0,10.6,0z"/>
<path class="st0" d="M10,7.4c1.4,0,2.6,1.2,2.6,2.6s-1.2,2.6-2.6,2.6c-1.4,0-2.6-1.2-2.6-2.6S8.6,7.4,10,7.4L10,7.4 M10,6.4
	C8,6.4,6.4,8,6.4,10S8,13.6,10,13.6c2,0,3.6-1.6,3.6-3.6S12,6.4,10,6.4L10,6.4z"/>
</svg>
