<svg xmlns="http://www.w3.org/2000/svg" viewBox="-9320 -22910.625 25 22.744"><defs><style>.a{fill:none;}.b{fill:#234056;}</style></defs><g transform="translate(-9320 -22910.624)"><path class="a" d="M52.578,3.2H46.4a1.593,1.593,0,0,0-1.6,1.6V7.089h9.375V4.8A1.593,1.593,0,0,0,52.578,3.2Z" transform="translate(-37.022 -2.644)"/><g transform="translate(0 4.514)"><g transform="translate(0 11.285)"><path class="b" d="M23.264,92.736v3.472H1.736V92.736H23.264M25,91H0v5.208a1.741,1.741,0,0,0,1.736,1.736H23.264A1.741,1.741,0,0,0,25,96.208V91Z" transform="translate(0 -91)"/></g><path class="b" d="M23.264,27.736v6.076H1.736V27.736H23.264m0-1.736H1.736A1.741,1.741,0,0,0,0,27.736v7.812H25V27.736A1.741,1.741,0,0,0,23.264,26Z" transform="translate(0 -26)"/></g><g transform="translate(5.382)"><path class="b" d="M43.326,1.736h0V4.514H32.736V1.736h10.59m0-1.736H32.736A1.741,1.741,0,0,0,31,1.736V4.514A1.741,1.741,0,0,0,32.736,6.25h10.59a1.741,1.741,0,0,0,1.736-1.736V1.736A1.741,1.741,0,0,0,43.326,0Z" transform="translate(-31)"/></g></g></svg>