<?xml version="1.0" encoding="utf-8"?>
<!-- Generator: Adobe Illustrator 21.0.2, SVG Export Plug-In . SVG Version: 6.00 Build 0)  -->
<svg version="1.1" id="Layer_1" xmlns="http://www.w3.org/2000/svg" xmlns:xlink="http://www.w3.org/1999/xlink" x="0px" y="0px"
	 viewBox="0 0 20 20" style="enable-background:new 0 0 20 20;" xml:space="preserve">
<style type="text/css">
	.st0{fill:#3399CC;}
</style>
<title>menu_home</title>
<path class="st0" d="M18.8,9.9L10,2.1L1.3,9.9c-0.3,0.3-0.8,0.3-1-0.1c0,0,0,0,0,0l0,0C-0.1,9.5-0.1,9,0.3,8.8L10,0l9.7,8.8
	c0.3,0.3,0.3,0.8,0.1,1.1l0,0C19.5,10.2,19.1,10.2,18.8,9.9C18.8,9.9,18.8,9.9,18.8,9.9z"/>
<path class="st0" d="M10,4.5l6.5,5.9V19H3.5v-8.6L10,4.5 M10,3.4c-0.2,0-0.4,0.1-0.5,0.2L2.8,9.7c-0.2,0.1-0.3,0.4-0.3,0.6v8.9
	c0,0.4,0.3,0.8,0.7,0.8c0,0,0,0,0,0h13.5c0.4,0,0.8-0.4,0.8-0.8c0,0,0,0,0,0v-8.9c0-0.2-0.1-0.4-0.3-0.6l-6.8-6.1
	C10.3,3.5,10.1,3.4,10,3.4L10,3.4z"/>
<path class="st0" d="M11.3,13.3V19H8.8v-5.7H11.3 M12.3,12.3H7.8V20h4.5V12.3z"/>
</svg>
