<?xml version="1.0" encoding="utf-8"?>
<!-- Generator: Adobe Illustrator 21.0.2, SVG Export Plug-In . SVG Version: 6.00 Build 0)  -->
<svg version="1.1" id="Layer_1" xmlns="http://www.w3.org/2000/svg" xmlns:xlink="http://www.w3.org/1999/xlink" x="0px" y="0px"
	 viewBox="0 0 25 22.7" style="enable-background:new 0 0 25 22.7;" xml:space="preserve">
<style type="text/css">
	.st0{fill:none;}
	.st1{fill:#3399CC;}
</style>
<g transform="translate(-9320 -22910.624)">
	<path class="st0" d="M9335.6,22911.2h-6.2c-0.9,0-1.6,0.7-1.6,1.6c0,0,0,0,0,0v2.3h9.4v-2.3
		C9337.2,22911.9,9336.4,22911.2,9335.6,22911.2C9335.6,22911.2,9335.6,22911.2,9335.6,22911.2z"/>
	<g transform="translate(0 4.514)">
		<g transform="translate(0 11.285)">
			<path class="st1" d="M9343.3,22912.4v3.5h-21.5v-3.5H9343.3 M9345,22910.6h-25v5.2c0,1,0.8,1.7,1.7,1.7h21.5c1,0,1.7-0.8,1.7-1.7
				V22910.6z"/>
		</g>
		<path class="st1" d="M9343.3,22912.4v6.1h-21.5v-6.1H9343.3 M9343.3,22910.6h-21.5c-1,0-1.7,0.8-1.7,1.7v7.8h25v-7.8
			C9345,22911.4,9344.2,22910.6,9343.3,22910.6z"/>
	</g>
	<g transform="translate(5.382)">
		<path class="st1" d="M9332.3,22912.4L9332.3,22912.4v2.8h-10.6v-2.8H9332.3 M9332.3,22910.6h-10.6c-1,0-1.7,0.8-1.7,1.7v2.8
			c0,1,0.8,1.7,1.7,1.7h10.6c1,0,1.7-0.8,1.7-1.7v-2.8C9334.1,22911.4,9333.3,22910.6,9332.3,22910.6z"/>
	</g>
</g>
</svg>
