<svg xmlns="http://www.w3.org/2000/svg" viewBox="-9318 -22582 20 20"><defs><style>.a{fill:#224056;}</style></defs><path class="a" d="M133.13,143.938q-.1.117-.26-.039t-.052-.247q.1-.117.26.039T133.13,143.938Zm-.547-.794q.117.156,0,.247t-.221-.091q-.117-.169,0-.234Q132.479,142.974,132.583,143.143Zm-.794-.781a.111.111,0,0,1-.169.026q-.13-.065-.091-.156.039-.065.169-.026Q131.828,142.271,131.789,142.362Zm.4.443q-.078.091-.208-.039t-.026-.208q.078-.078.208.039Q132.284,142.74,132.193,142.8Zm1.68,1.458q-.052.156-.247.078-.221-.052-.169-.2t.247-.091Q133.911,144.12,133.872,144.263Zm.82.065q0,.143-.208.143-.221.026-.221-.143,0-.143.208-.143Q134.693,144.159,134.693,144.328Zm.755-.13q.026.13-.182.182t-.234-.1q-.026-.156.182-.2T135.448,144.2ZM148,131.75v12.5a3.757,3.757,0,0,1-3.75,3.75h-2.917a2.937,2.937,0,0,1-.319-.013,1.151,1.151,0,0,1-.254-.065.358.358,0,0,1-.208-.189.838.838,0,0,1-.065-.358v-3.112a2.319,2.319,0,0,0-.677-1.849,8.917,8.917,0,0,0,1.335-.234,5.319,5.319,0,0,0,1.224-.508,3.639,3.639,0,0,0,1.055-.866,4.029,4.029,0,0,0,.69-1.367,6.564,6.564,0,0,0,.267-1.96,3.8,3.8,0,0,0-1.029-2.682,3.467,3.467,0,0,0-.1-2.656,1.706,1.706,0,0,0-1.055.143,7.013,7.013,0,0,0-1.2.573l-.495.313a9.4,9.4,0,0,0-5,0q-.208-.143-.553-.352a7.806,7.806,0,0,0-1.087-.5,1.825,1.825,0,0,0-1.12-.176,3.5,3.5,0,0,0-.091,2.656,3.8,3.8,0,0,0-1.029,2.682,6.5,6.5,0,0,0,.267,1.953,4.192,4.192,0,0,0,.684,1.367,3.508,3.508,0,0,0,1.048.872,5.319,5.319,0,0,0,1.224.508,8.917,8.917,0,0,0,1.335.234,2.11,2.11,0,0,0-.638,1.341,2.582,2.582,0,0,1-.586.2,3.684,3.684,0,0,1-.742.065,1.534,1.534,0,0,1-.853-.28,2.3,2.3,0,0,1-.723-.814,2.1,2.1,0,0,0-.632-.677,1.9,1.9,0,0,0-.645-.312l-.26-.039a.845.845,0,0,0-.378.059q-.1.059-.065.15a.717.717,0,0,0,.117.182.952.952,0,0,0,.169.156l.091.065a1.572,1.572,0,0,1,.566.495,3.256,3.256,0,0,1,.41.664l.13.3a1.651,1.651,0,0,0,.573.8,2.026,2.026,0,0,0,.872.391,5.561,5.561,0,0,0,.9.091,3.83,3.83,0,0,0,.723-.046l.3-.052q0,.495.007,1.341t.007.885a.607.607,0,0,1-.143.436.5.5,0,0,1-.286.169,3.46,3.46,0,0,1-.43.02H131.75a3.757,3.757,0,0,1-3.75-3.75v-12.5a3.757,3.757,0,0,1,3.75-3.75h12.5a3.757,3.757,0,0,1,3.75,3.75Z" transform="translate(-9446 -22710)"/></svg>