<svg xmlns="http://www.w3.org/2000/svg" viewBox="-9318 -22618 20 20"><defs><style>.a{fill:#224056;fill-rule:evenodd;}</style></defs><path class="a" d="M33.437,16H18.563A2.573,2.573,0,0,0,16,18.563V33.437A2.573,2.573,0,0,0,18.563,36H33.437A2.573,2.573,0,0,0,36,33.437V18.563A2.573,2.573,0,0,0,33.437,16ZM22.875,25.659v6.175H20.167V24.042h2.708Zm-1.36-2.779a1.365,1.365,0,1,1,1.365-1.365A1.365,1.365,0,0,1,21.515,22.88Zm10.318,4.7v4.25H29.5V28.049c0-.906-.1-2.072-1.34-2.072-1.261,0-1.451.987-1.451,2.007v3.85h-2.25V24.042h2.167v1.042h.023a2.5,2.5,0,0,1,2.294-1.043c1.986,0,2.661.939,2.846,2.409a9.013,9.013,0,0,1,.061,1.134Z" transform="translate(-9334 -22634)"/></svg>