<svg xmlns="http://www.w3.org/2000/svg" viewBox="-9318 -22546 20 20"><defs><style>.a{fill:#224056;fill-rule:evenodd;}</style></defs><path class="a" d="M33.437,16H18.563A2.573,2.573,0,0,0,16,18.563V33.437A2.573,2.573,0,0,0,18.563,36H33.437A2.573,2.573,0,0,0,36,33.437V18.563A2.573,2.573,0,0,0,33.437,16Zm-4.47,8.953L28.871,26h-2v6.667H24.208V26H22.875V23.333h1.333v-1.21a2.606,2.606,0,0,1,2.811-2.8l2.064.009v2.291h-1.5a.557.557,0,0,0-.583.637v1.072h2.114Z" transform="translate(-9334 -22562)"/></svg>