<svg xmlns="http://www.w3.org/2000/svg" viewBox="0 0 261.8 554.15"><defs><style>.cls-1{fill:#08171e;}</style></defs><title>manOnCliff</title><g id="Layer_2" data-name="Layer 2"><g id="Layer_1-2" data-name="Layer 1"><path class="cls-1" d="M248.71,554.15,240,534.51l-8.73,4.36s4.36-8.73,4.36-15.27,0-26.18-2.18-28.36,2.18-10.91,2.18-10.91V466.88l-2.18-8.73,2.18-4.36V440.7l-2.18-4.36v-8.73l2.18-4.36V410.16l-2.18-6.55V390.52l-4.36-8.73,21.82-78.54-4.36-10.91V266.17l-8.73-30.54,6.55-26.18,4.36-4.36V192l2.18-6.55-8.73-8.73L261.8,144V120l-15.27,4.36V109.08l-13.09-8.73-63.27,6.55L96,120l-28.36-2.18s-24.94-6.13-26.18-6.55v21.82l10.91,8.73,2.18,8.73-4.36,10.91L65.45,178.9v45.82l-4.36,2.18v45.82l8.73,10.91v10.91L85.09,309.8v6.55l8.73,10.91V336l10.91,17.45-6.55,8.73,8.73,28.36s-10.91,37.09-8.73,48,13.09,39.27,13.09,52.36-48,58.91-48,58.91l-10.91,4.36Z"/><path class="cls-1" d="M103.93,54.79c-.71-4.95-2.83-11.66-5.66-15.55S88,31.46,87.67,29.69a18,18,0,0,1-.35-3.18S90.14,25.1,90.49,24s2.83-10.6.71-14.49S83.42,0,79.18,0s-3.53,1.06-5.3,1.41S70.7,1.06,70,1.77,62.57,5.3,61.51,7.42s1.24,5.13,1.24,5.13-1.06,4.6-.71,5.66A13.34,13.34,0,0,0,63.81,21l-1.24,3.71s-.71,1.06-.35,1.41,3.18.35,3.18.35V29l1.06.35V30.4l1.41.35s-.35,2.47,1.77,2.83a12.28,12.28,0,0,0,4.6-.35l4.24,6L71.76,54.08,70.7,76.88l-1.61,3.34L50.48,81.88,40.22,80.82l-3.62,6.3-6.89-1L6.09,55.61l-1,1S26,89,27.75,90.07l7.87,1s-7.34,1.08-8.75,3.2-7.43,39.13-9.55,39.84a1.43,1.43,0,0,0,1.06,1.77L17.32,138l1.06.35.71,1.41s-4.95,3.18-7.07,4.95-9.9,6.72-9.9,6.72L0,152.47s.71,2.83,3.18,3.18,11,0,11,0a7.47,7.47,0,0,1,4.24,0c2.12.71,4.95-.13,7.07-.13s5.66,0,5.66-4.95v-3.18h1.77s7.24-34.33,8.65-34.69,13.27,1.47,21.4,4.65S82.36,123,88,122.3s12-4.24,13.08-7.78.35-7.78,0-11.31,1.06-7.78,1.41-10.25-.71-14.49-.71-18.38S104.63,59.74,103.93,54.79ZM70.07,92l-6.89-1,2-1-2-1s7.87-.35,7.87,0A28.73,28.73,0,0,1,70.07,92Z"/></g></g></svg>