<svg xmlns="http://www.w3.org/2000/svg" viewBox="-8470.513 -20399.303 503.513 481.834">
  <defs>
    <style>
      .cls-1, .cls-3 {
        fill: #fff;
      }

      .cls-2 {
        fill: #87ceec;
      }

      .cls-3 {
        stroke: #174a65;
        stroke-miterlimit: 10;
      }

      .cls-4 {
        opacity: 0.2;
      }
    </style>
  </defs>
  <g id="Group_644" data-name="Group 644" transform="translate(-8470.513 -20398.096)">
    <g id="Group_674" data-name="Group 674" transform="translate(0 286.802)">
      <path id="Path_1152" data-name="Path 1152" class="cls-1" d="M100.13,508.052c42.055,4.363,58.5,30.325,107.283,52.211,13.16,5.865,39.552,17.451,75.1,20.741,21.743,2,79.246,7.3,123.733-25.748,15.878-11.8,25.033-24.747,54.357-42.2,20.312-12.087,31.684-18.667,40.767-15.02a15.016,15.016,0,0,1,2.146,1.073V402.2H0q28.108,55.251,56.288,110.5c.215.358.358.715.572,1.073.143-.715.215-1.43.358-2.146A118.114,118.114,0,0,1,100.13,508.052Z" transform="translate(0 -402.2)"/>
      <path id="Path_1153" data-name="Path 1153" class="cls-2" d="M526.153,633.785V536.873a15.008,15.008,0,0,0-2.146-1.073c-9.083-3.648-20.455,2.932-40.767,15.02-29.324,17.451-38.479,30.4-54.357,42.2-44.487,33.043-101.99,27.75-123.733,25.748-35.546-3.29-61.938-14.877-75.1-20.741-48.778-21.886-65.228-47.848-107.283-52.211a118.113,118.113,0,0,0-42.913,3.576c-.143.715-.286,1.43-.358,2.146q20.92,41.089,41.84,82.25Z" transform="translate(-22.64 -439.961)"/>
    </g>
    <path id="Path_1154" data-name="Path 1154" class="cls-3" d="M322.2,1.2,59,264.4H322.2Z" transform="translate(-16.802 -1.2)"/>
    <path id="Path_1155" data-name="Path 1155" class="cls-1" d="M625.115,205.752v-6.437L427,1.2V205.752Z" transform="translate(-121.602 -1.2)"/>
    <path id="Path_1156" data-name="Path 1156" class="cls-4" d="M427,270.526h34.33L427,20.2Z" transform="translate(-121.602 -6.611)"/>
  </g>
</svg>
